<svg width="779" height="494" viewBox="0 0 779 494" fill="none" xmlns="http://www.w3.org/2000/svg">
<path d="M192.671 346.46C191.207 359.266 210.973 355.241 215.732 354.51C220.491 353.778 266.174 345.435 283.452 339.873C305.049 332.921 392.901 289.011 405.347 288.646C417.792 288.28 474.164 309.502 477.825 312.064C481.485 314.625 489.172 314.259 510.769 334.384C532.366 354.51 550.303 390.369 573.73 420.74C597.157 451.11 632.664 473.065 658.654 484.408C684.644 495.752 703.678 493.922 715.026 491.727C724.104 489.97 731.498 480.749 734.061 476.358C742.48 461.478 759.684 430.766 761.148 426.96C762.979 422.203 762.247 418.544 761.148 413.055C760.27 408.665 754.682 406.835 751.997 406.469C734.915 397.687 699.432 379.392 694.161 376.464C687.572 372.805 675.858 364.755 673.662 358.901C671.466 353.046 671.1 347.923 670.368 342.069C669.636 336.214 672.198 335.848 675.858 329.262C679.519 322.675 679.153 316.089 678.421 308.405C677.689 300.721 671.832 293.768 662.681 286.816C653.529 279.864 561.284 255.348 551.401 252.42C541.518 249.493 516.626 237.784 510.403 229.002C504.18 220.22 503.082 205.218 503.082 198.265C503.082 191.313 500.52 164.967 503.082 160.576C505.645 156.186 510.769 152.892 517.724 149.233C524.679 145.574 624.245 114.106 633.397 111.91C642.548 109.715 685.742 89.2237 690.867 87.76C695.991 86.2964 701.116 87.0282 705.509 89.2237C709.901 91.4191 731.864 124.351 734.061 126.547C736.257 128.742 744.676 136.06 748.703 138.988C752.729 141.915 760.782 141.183 765.907 138.988C771.032 136.792 778.353 129.474 777.987 119.96C777.621 110.447 770.3 102.031 769.568 100.567C768.836 99.1033 702.946 18.9686 693.063 10.5527C683.18 2.13668 671.832 8.35718 670.002 9.08901C668.171 9.82083 650.235 14.9436 647.673 16.4072C645.11 17.8709 630.834 22.2618 627.174 20.4323C623.513 18.6027 623.879 17.5051 614.362 6.89365C606.748 -1.5955 596.059 0.917095 591.667 3.23454L334.333 104.592C323.107 108.983 299.558 119.302 295.165 125.449C289.674 133.133 204.751 191.679 194.135 197.168C183.52 202.656 165.583 207.047 156.798 216.195C148.013 225.343 150.575 229.734 139.593 245.468C128.612 261.202 56.4998 334.019 43.688 349.753C33.4385 362.34 11.5975 415.739 1.95811 440.865C0.493902 447.939 -0.384622 461.576 7.81493 459.526C18.0644 456.965 187.546 335.116 189.01 335.116C190.475 335.116 194.135 333.653 192.671 346.46Z" stroke="#150941"/>
<line x1="113.166" y1="380.392" x2="121.228" y2="391.554" stroke="#F80040" stroke-width="5"/>
<line y1="-1.5" x2="7.57663" y2="-1.5" transform="matrix(-0.378945 -0.925419 0.867521 -0.497401 32.1558 383.906)" stroke="#F80040" stroke-width="3"/>
<line y1="-1.5" x2="7.57663" y2="-1.5" transform="matrix(0.867521 -0.497401 0.378945 0.925419 23.0837 382.524)" stroke="#F80040" stroke-width="3"/>
<line y1="-1.5" x2="7.57663" y2="-1.5" transform="matrix(-0.378945 -0.925419 0.867521 -0.497401 154.938 230.81)" stroke="#F80040" stroke-width="3"/>
<line y1="-1.5" x2="7.57663" y2="-1.5" transform="matrix(0.867521 -0.497401 0.378945 0.925419 145.866 229.427)" stroke="#F80040" stroke-width="3"/>
<line y1="-1.5" x2="7.57663" y2="-1.5" transform="matrix(0.423793 -0.905759 0.953641 0.300947 381.965 91.6079)" stroke="#F80040" stroke-width="3"/>
<line y1="-1.5" x2="7.57663" y2="-1.5" transform="matrix(0.953641 0.300947 -0.423793 0.905759 376.835 83.9993)" stroke="#F80040" stroke-width="3"/>
<line y1="-1.5" x2="7.57663" y2="-1.5" transform="matrix(0.423793 -0.905759 0.953641 0.300947 552.828 24.6882)" stroke="#F80040" stroke-width="3"/>
<line y1="-1.5" x2="7.57663" y2="-1.5" transform="matrix(0.953641 0.300947 -0.423793 0.905759 547.698 17.0793)" stroke="#F80040" stroke-width="3"/>
<line y1="-1.5" x2="7.57663" y2="-1.5" transform="matrix(0.995627 0.0934178 0.0383803 0.999263 698.892 23.3865)" stroke="#F80040" stroke-width="3"/>
<line y1="-1.5" x2="7.57663" y2="-1.5" transform="matrix(0.0383803 0.999263 -0.995627 -0.0934178 704.324 15.9897)" stroke="#F80040" stroke-width="3"/>
<line y1="-1.5" x2="7.57663" y2="-1.5" transform="matrix(-0.507069 0.861906 -0.921125 -0.389268 629.382 107.661)" stroke="#F80040" stroke-width="3"/>
<line y1="-1.5" x2="7.57663" y2="-1.5" transform="matrix(-0.921125 -0.389268 0.507069 -0.861906 633.775 115.719)" stroke="#F80040" stroke-width="3"/>
<line y1="-1.5" x2="7.57663" y2="-1.5" transform="matrix(0.995186 -0.0980008 0.228077 0.973643 518.025 241.325)" stroke="#F80040" stroke-width="3"/>
<line y1="-1.5" x2="7.57663" y2="-1.5" transform="matrix(0.228077 0.973643 -0.995186 0.0980008 521.949 233.029)" stroke="#F80040" stroke-width="3"/>
<line y1="-1.5" x2="7.57663" y2="-1.5" transform="matrix(0.995186 -0.0980008 0.228077 0.973643 689.176 378.37)" stroke="#F80040" stroke-width="3"/>
<line y1="-1.5" x2="7.57663" y2="-1.5" transform="matrix(0.228077 0.973643 -0.995186 0.0980008 693.1 370.074)" stroke="#F80040" stroke-width="3"/>
<line y1="-1.5" x2="7.57663" y2="-1.5" transform="matrix(-0.998483 0.0550614 -0.185945 -0.98256 630.306 464.123)" stroke="#F80040" stroke-width="3"/>
<line y1="-1.5" x2="7.57663" y2="-1.5" transform="matrix(-0.185945 -0.98256 0.998483 -0.0550614 626.028 472.242)" stroke="#F80040" stroke-width="3"/>
<line y1="-1.5" x2="7.57663" y2="-1.5" transform="matrix(-0.998483 0.0550614 -0.185945 -0.98256 497.602 316.537)" stroke="#F80040" stroke-width="3"/>
<line y1="-1.5" x2="7.57663" y2="-1.5" transform="matrix(-0.185945 -0.98256 0.998483 -0.0550614 493.325 324.656)" stroke="#F80040" stroke-width="3"/>
<line y1="-1.5" x2="7.57663" y2="-1.5" transform="matrix(-0.596348 0.802726 -0.874205 -0.485556 266.671 339.423)" stroke="#F80040" stroke-width="3"/>
<line y1="-1.5" x2="7.57663" y2="-1.5" transform="matrix(-0.874205 -0.485556 0.596348 -0.802726 270.177 347.904)" stroke="#F80040" stroke-width="3"/>
<line y1="-1.5" x2="7.57663" y2="-1.5" transform="matrix(-0.262309 0.964984 -0.991106 -0.133074 79.3013 406.946)" stroke="#F80040" stroke-width="3"/>
<line y1="-1.5" x2="7.57663" y2="-1.5" transform="matrix(-0.991106 -0.133074 0.262309 -0.964984 85.6599 413.563)" stroke="#F80040" stroke-width="3"/>
</svg>
